HIERARCHY
ROOT Hips
{
	OFFSET	0.00	0.00	0.00
	CHANNELS 6 Xposition Yposition Zposition Zrotation Xrotation Yrotation
	JOINT Spine
	{
		OFFSET	 0.00	0.01	 0.00
		CHANNELS 3 Zrotation Xrotation Yrotation
		JOINT Spine1
		{
			OFFSET	 0.00	 2.45913012437421	 0.00
			CHANNELS 3 Zrotation Xrotation Yrotation
            JOINT Neck
            {
                OFFSET	 0.00	 2.48462964506057	 0.00
                CHANNELS 3 Zrotation Xrotation Yrotation
                JOINT Head
                {
                    OFFSET	 0.00	 0.927524780924562	 0.00
                    CHANNELS 3 Zrotation Xrotation Yrotation
                    End Site 
                    {
                        OFFSET	 0.00	 1.14999962169752	 0.00
                    }
                }
            }
			JOINT LeftShoulder
			{
				OFFSET	 0.00	 2.48462964506057	 0.00
				CHANNELS 3 Zrotation Xrotation Yrotation
				JOINT LeftUpArm
				{
					OFFSET	 0.00	 1.24881979654096	 0.00
					CHANNELS 3 Zrotation Xrotation Yrotation
					JOINT LeftForeArm
					{
						OFFSET	 0.00	2.59758046908119	 0.00
						CHANNELS 3 Zrotation Xrotation Yrotation
						JOINT LeftHand
						{
							OFFSET	 0.00	2.45542024364365	 0.00
							CHANNELS 3 Zrotation Xrotation Yrotation
							JOINT LeftHandThumb 
							{
								OFFSET	 0.00	0.00	 0.00
								CHANNELS 3 Zrotation Xrotation Yrotation
								End Site
								{
									OFFSET	 0.00	0.00	1.00000003353624
								}
							}
							JOINT L_Wrist_End 
							{
								OFFSET	 0.00	0.99999967115358	 0.00
								CHANNELS 3 Zrotation Xrotation Yrotation
								End Site 
								{
									OFFSET	 0.00	 0.00	 0.00
								}
							}
						}
					}
				}
			}
			JOINT RightShoulder
			{
				OFFSET	 0.00	 2.48462964506057	 0.00
				CHANNELS 3 Zrotation Xrotation Yrotation
				JOINT RightUpArm
				{
					OFFSET	 0.00	 1.24881979654096	 0.00
					CHANNELS 3 Zrotation Xrotation Yrotation
					JOINT RightForeArm
					{
						OFFSET	 0.00	2.59758046908119	 0.00
						CHANNELS 3 Zrotation Xrotation Yrotation
						JOINT RightHand
						{
							OFFSET	 0.00	2.45542024364365	 0.00
							CHANNELS 3 Zrotation Xrotation Yrotation
							JOINT RightHandThumb 
							{
								OFFSET	 0.00	0.00	 0.00
								CHANNELS 3 Zrotation Xrotation Yrotation
								End Site
								{
									OFFSET	 0.00	0.00	1.00000003353624
								}
							}
							JOINT R_Wrist_End 
							{
								OFFSET	 0.00	0.99999967115358	 0.00
								CHANNELS 3 Zrotation Xrotation Yrotation
								End Site 
								{
									OFFSET	 0.00	 0.00	 0.00
								}
							}
						}
					}
				}
			}
		}
	}
	JOINT LeftUpLeg
	{
		OFFSET	 1.2719394002717	 0.00	 0.00
		CHANNELS 3 Zrotation Xrotation Yrotation
		JOINT LeftLowLeg
		{
			OFFSET	 0.00	-4.3429100912261	 0.00
			CHANNELS 3 Zrotation Xrotation Yrotation
			JOINT LeftFoot
			{
				OFFSET	 0.00	-4.48767017425826	 0.00
				CHANNELS 3 Zrotation Xrotation Yrotation
				JOINT LeftToeBase
                {
                    OFFSET	 0.00	0.00	 1.51507020887566
                    CHANNELS 3 Zrotation Xrotation Yrotation
                    End Site 
                    {
                        OFFSET	 0.00	0.00	 0.75000010571191
                    }
                }
			}
		}
	}
	JOINT RightUpLeg
	{
		OFFSET	 -1.2719393604653	 0.00	 0.00
		CHANNELS 3 Zrotation Xrotation Yrotation
		JOINT RightLowLeg
		{
			OFFSET	 0.00	-4.3429100912261	 0.00
			CHANNELS 3 Zrotation Xrotation Yrotation
			JOINT RightFoot
			{
				OFFSET	 0.00	-4.48767017425826	 0.00
				CHANNELS 3 Zrotation Xrotation Yrotation
				JOINT RightToeBase
                {
                    OFFSET	 0.00	0.00	 1.51507020887566
                    CHANNELS 3 Zrotation Xrotation Yrotation
                    End Site 
                    {
                        OFFSET	 0.00	0.00	 0.749999965609858
                    }
                }   
			}
		}
	}
}
MOTION 
Frames:	18 
Frame Time: 0.02 
 -1.9264100646972657 7.7090301513671875 10.43550048828125 -44.478 84.765 46.0304 5.51768 -23.1737 0.112265 -3.57984 39.3065 0.445241 1.85262 24.5904 1.01881 18.6504 -68.2318 14.0489 -118.5375 2.82827 -7.38333 -36.1547 -0.310174 34.0248 0.0 25.3648 0.0 8.98416 -7.60184 -1.05258 0.0 0.0 0.0 0.0 0.0 0.0 119.922104 1.81877 1.95067 41.3056 6.53093 -25.9399 0.0 26.3625 0.0 -6.37356 -0.787361 7.76102 0.0 0.0 0.0 0.0 0.0 0.0 2.69533 11.443 12.1865 0.0 2.6175 0.0 -5.55973 7.053 6.50407 0.0 -9.85802 0.0 9.70366 8.65282 15.5743 0.0 7.51829 0.0 16.4976 6.54669 -24.096 0.0 -10.40339 0.0 
  -1.926820068359375 7.710650024414062 10.435 -45.1117 84.8224 46.6688 5.55681 -23.2128 0.183718 -3.6448 39.3121 0.468728 1.8965 24.6566 0.956028 18.5542 -68.2153 13.963 -118.5051 2.7726 -7.43331 -36.3062 -0.73276 33.679 0.0 24.4454 0.0 8.7636 -7.56659 -1.11781 0.0 0.0 0.0 0.0 0.0 0.0 119.9201 1.73483 2.03317 41.5573 6.15057 -25.9272 0.0 25.7375 0.0 -6.0314 -1.07804 7.81225 0.0 0.0 0.0 0.0 0.0 0.0 2.69257 11.3821 12.2327 0.0 2.55651 0.0 -5.5687 7.06982 6.45193 0.0 -9.84469 0.0 9.69644 8.57738 15.5306 0.0 7.48962 0.0 16.4826 6.5575304 -24.0238 0.0 -10.5403 0.0 
  -1.925959930419922 7.711409912109375 10.43449951171875 -45.5195 84.8868 47.1375 5.62022 -23.2215 0.284059 -3.77571 39.2352 0.433151 1.96515 24.8187 0.906031 18.6109 -68.2721 14.0375 -118.4384 2.67384 -7.44327 -36.4442 -1.09831 33.3061 0.0 23.6197 0.0 8.35135 -7.78542 -1.06689 0.0 0.0 0.0 0.0 0.0 0.0 120.0038 1.64809 1.98291 41.7395 5.8012 -25.866 0.0 25.0995 0.0 -5.49458 -1.52067 6.92802 0.0 0.0 0.0 0.0 0.0 0.0 2.66891 11.3354 12.2439 0.0 2.46973 0.0 -5.55397 7.1176 6.39756 0.0 -9.8504 0.0 9.7358 8.43757 16.24 0.0 7.67897 0.0 16.7252 6.1978197 -24.5992 0.0 -10.47859 0.0 
  -1.9259300231933594 7.7131500244140625 10.434000244140625 -46.0606 84.915 47.6322 5.72204 -23.2156 0.434889 -3.89046 39.1967 0.451184 2.0487 24.9239 0.844655 18.6131 -68.2693 14.0649 -118.3487 2.57717 -7.51498 -36.5993 -1.42579 32.9949 0.0 22.9061 0.0 7.99469 -8.05267 -0.843939 0.0 0.0 0.0 0.0 0.0 0.0 120.0297 1.59337 1.98104 41.9553 5.45091 -25.7852 0.0 24.4036 0.0 -5.11857 -1.65509 6.63371 0.0 0.0 0.0 0.0 0.0 0.0 2.66289 11.342 12.4271 0.0 2.34349 0.0 -5.53954 7.16677 6.27045 0.0 -9.84093 0.0 9.77059 8.31126 16.52 0.0 7.82027 0.0 16.804 6.0753803 -24.7707 0.0 -10.478069 0.0 
  -1.9269599914550781 7.716810302734375 10.433499755859375 -46.4373 84.9343 47.938 5.76045 -23.1647 0.516637 -3.92763 39.1493 0.495317 2.07214 25.0133 0.820465 18.5924 -68.2829 14.073 -118.3154 2.49036 -7.59603 -36.6999 -1.71607 32.7915 0.0 22.3677 0.0 7.68835 -8.25227 -0.816796 0.0 0.0 0.0 0.0 0.0 0.0 120.0599 1.54876 1.97429 42.0617 5.14853 -25.9101 0.0 23.7896 0.0 -4.98123 -1.68174 6.88376 0.0 0.0 0.0 0.0 0.0 0.0 2.65208 11.3689 12.6975 0.0 2.19476 0.0 -5.52883 7.23553 6.079 0.0 -9.83688 0.0 9.77284 8.20091 16.2676 0.0 7.90608 0.0 16.7048 6.1655903 -24.5076 0.0 -10.4928 0.0 
  -1.9274099731445313 7.725809936523437 10.43219970703125 -47.0278 84.9675 48.3845 5.85506 -23.0445 0.675723 -4.00323 39.0605 0.545755 2.10943 25.0679 0.791441 18.6353 -68.3221 14.1168 -118.2952 2.43755 -7.6663 -36.7342 -1.94317 32.6445 0.0 22.0092 0.0 7.42459 -8.46197 -0.603841 0.0 0.0 0.0 0.0 0.0 0.0 120.1165 1.5402 1.99783 42.1124 4.84937 -25.7318 0.0 23.3084 0.0 -4.27723 -2.27983 5.05507 0.0 0.0 0.0 0.0 0.0 0.0 2.62492 11.3029 12.7051 0.0 2.16079 0.0 -5.55368 7.19608 6.22742 0.0 -9.81452 0.0 9.7784 8.00037 16.3206 0.0 8.09329 0.0 16.7414 6.1083803 -24.366 0.0 -10.48727 0.0 
  -1.9295899963378906 7.7284698486328125 10.432099609375 -47.1269 84.9565 48.4893 5.77326 -23.011 0.585157 -3.89681 39.0794 0.590486 2.02689 25.0902 0.824228 18.5487 -68.3204 13.9795 -118.3254 2.37726 -7.69836 -36.7782 -2.11339 32.5772 0.0 21.8134 0.0 7.20218 -8.57762 -0.612227 0.0 0.0 0.0 0.0 0.0 0.0 120.1165 1.49248 2.01262 42.146 4.60466 -25.5499 0.0 22.8307 0.0 -3.77782 -2.85708 6.96533 0.0 0.0 0.0 0.0 0.0 0.0 2.64203 11.3708 12.8947 0.0 1.98381 0.0 -5.54185 7.29949 6.02928 0.0 -9.84827 0.0 9.80842 7.94351 16.2532 0.0 8.17325 0.0 16.7639 6.1173897 -24.2885 0.0 -10.50296 0.0 
  -1.9318899536132812 7.7322998046875 10.4318994140625 -47.1183 84.9458 48.5011 5.61957 -22.9585 0.3992 -3.68817 39.0824 0.649132 1.82694 25.156 0.928183 18.4484 -68.3734 13.7871 -118.4421 2.35956 -7.72714 -36.7465 -2.26746 32.5754 0.0 21.7854 0.0 6.92985 -8.63458 -0.438291 0.0 0.0 0.0 0.0 0.0 0.0 120.0287 1.44696 2.04851 42.1824 4.34603 -25.2746 0.0 22.5167 0.0 -3.51313 -3.16473 6.98918 0.0 0.0 0.0 0.0 0.0 0.0 2.66128 11.3877 12.8896 0.0 1.91092 0.0 -5.54468 7.32511 6.00699 0.0 -9.81448 0.0 9.83807 7.90106 16.2321 0.0 8.22873 0.0 16.7671 6.1087 -24.28 0.0 -10.513861 0.0 
  -1.9332899475097656 7.735759887695313 10.431800537109375 -47.0961 84.9547 48.5065 5.52981 -22.9142 0.302312 -3.59508 39.0612 0.674122 1.73456 25.257 0.988009 18.4373 -68.4105 13.7373 -118.501 2.3688 -7.7673 -36.7046 -2.41842 32.69 0.0 21.8764 0.0 6.86473 -8.62765 -0.398087 0.0 0.0 0.0 0.0 0.0 0.0 119.9916 1.38247 2.09986 42.1975 4.12841 -25.0674 0.0 22.3274 0.0 -3.30641 -3.37061 6.8675 0.0 0.0 0.0 0.0 0.0 0.0 2.66357 11.3734 12.8239 0.0 1.87932 0.0 -5.56483 7.34186 6.03701 0.0 -9.79372 0.0 9.84863 7.8544 16.212 0.0 8.27384 0.0 16.7728 6.09039 -24.2842 0.0 -10.4945 0.0 
  -1.9355499267578125 7.738590087890625 10.43199951171875 -47.0554 84.9614 48.5002 5.44364 -22.8925 0.20893 -3.52511 39.0553 0.686297 1.68293 25.3027 0.97113 18.339 -68.454 13.5762 -118.529 2.35843 -7.77711 -36.6564 -2.47793 32.8184 0.0 22.0904 0.0 6.96508 -8.62759 -0.419769 0.0 0.0 0.0 0.0 0.0 0.0 119.9322 1.30707 2.12559 42.2571 3.94802 -24.9975 0.0 22.0632 0.0 -3.51378 -2.75059 6.40655 0.0 0.0 0.0 0.0 0.0 0.0 2.67643 11.3529 12.764 0.0 1.8697 0.0 -5.58101 7.36066 6.04863 0.0 -9.80425 0.0 9.86585 7.82935 16.2483 0.0 8.28601 0.0 16.7674 6.08298 -24.3623 0.0 -10.46801 0.0 
  -1.9366000366210938 7.741489868164063 10.4322998046875 -46.8943 84.9626 48.379 5.43628 -22.8426 0.207139 -3.54808 39.0139 0.659951 1.72206 25.4833 0.95375 18.3957 -68.4978 13.6668 -118.5202 2.36882 -7.75785 -36.5971 -2.48568 32.9044 0.0 22.3805 0.0 7.02874 -8.60745 -0.513758 0.0 0.0 0.0 0.0 0.0 0.0 119.9384 1.21777 2.17317 42.2448 3.82252 -25.3937 0.0 21.8911 0.0 -3.99713 -2.39733 5.9837 0.0 0.0 0.0 0.0 0.0 0.0 2.68025 11.3256 12.6802 0.0 1.89224 0.0 -5.58415 7.36525 6.09633 0.0 -9.78537 0.0 9.86905 7.8102 16.2318 0.0 8.30712 0.0 16.7976 6.0798798 -24.3723 0.0 -10.46183 0.0 
  -1.9376199340820313 7.745339965820312 10.432900390625 -46.6938 84.9538 48.2123 5.46621 -22.7925 0.231043 -3.60533 39.0065 0.601958 1.75131 25.6259 0.940231 18.4727 -68.5431 13.7183 -118.4878 2.38307 -7.77019 -36.5463 -2.43868 32.981 0.0 22.7236 0.0 7.12742 -8.5459 -0.755982 0.0 0.0 0.0 0.0 0.0 0.0 119.9681 1.13402 2.21999 42.1901 3.74579 -25.4014 0.0 21.9552 0.0 -3.93202 -2.56615 5.86241 0.0 0.0 0.0 0.0 0.0 0.0 2.69173 11.2765 12.5814 0.0 1.97033 0.0 -5.57049 7.35028 6.16629 0.0 -9.772369 0.0 9.87871 7.79456 16.2312 0.0 8.3299 0.0 16.8076 6.07948 -24.4022 0.0 -10.44289 0.0 
  -1.9392399597167969 7.747869873046875 10.433599853515625 -46.4759 84.9493 48.0416 5.51433 -22.7783 0.27514 -3.72199 39.04 0.515304 1.8295 25.6861 0.903683 18.5108 -68.4942 13.7405 -118.395004 2.38646 -7.79808 -36.5343 -2.33447 32.9935 0.0 23.1162 0.0 7.34219 -8.50817 -0.727771 0.0 0.0 0.0 0.0 0.0 0.0 120.0009 1.17709 2.19871 42.1681 3.65772 -25.4014 0.0 22.0541 0.0 -3.9564 -2.71162 6.2726 0.0 0.0 0.0 0.0 0.0 0.0 2.70729 11.2201 12.3776 0.0 2.07436 0.0 -5.58357 7.31215 6.31505 0.0 -9.75517 0.0 9.87934 7.81796 16.2037 0.0 8.27959 0.0 16.7883 6.12164 -24.4401 0.0 -10.43758 0.0 
  -1.940279998779297 7.75218017578125 10.434100341796874 -46.2147 84.943 47.8538 5.52854 -22.7335 0.25657 -3.76074 39.0469 0.421767 1.78037 25.7911 0.954632 18.5594 -68.5239 13.7694 -118.3905 2.46366 -7.81349 -36.4844 -2.20952 32.9663 0.0 23.5361 0.0 7.56674 -8.40834 -0.744907 0.0 0.0 0.0 0.0 0.0 0.0 120.0261 1.18383 2.157 42.0818 3.63589 -25.1294 0.0 22.258 0.0 -3.62836 -3.03212 6.08002 0.0 0.0 0.0 0.0 0.0 0.0 2.72464 11.1389 12.165 0.0 2.20378 0.0 -5.57882 7.26954 6.45768 0.0 -9.77085 0.0 9.87225 7.84315 16.097 0.0 8.21061 0.0 16.7791 6.1711397 -24.4195 0.0 -10.465321 0.0 
  -1.94072998046875 7.756420288085938 10.4352001953125 -46.0223 84.9656 47.7443 5.52866 -22.7456 0.222046 -3.799 39.1028 0.33701 1.7314 25.8776 0.992903 18.5596 -68.5396 13.7538 -118.3882 2.5892 -7.8462 -36.4219 -2.07991 32.9741 0.0 24.0611 0.0 7.86346 -8.36313 -0.85168 0.0 0.0 0.0 0.0 0.0 0.0 120.0009 1.148 2.16244 42.067 3.69368 -25.0359 0.0 22.3854 0.0 -3.71621 -2.96228 6.31326 0.0 0.0 0.0 0.0 0.0 0.0 2.71704 11.0919 12.3131 0.0 2.19677 0.0 -5.52787 7.36207 6.25039 0.0 -9.805981 0.0 9.85012 7.84231 16.0272 0.0 8.15393 0.0 16.7802 6.19759 -24.4433 0.0 -10.420509 0.0 
  -1.9432000732421875 7.757589721679688 10.436500244140625 -45.1956 84.8952 47.0191 5.4548 -22.7175 0.0891827 -3.72747 39.2204 0.279902 1.62701 25.8957 1.06096 18.4928 -68.519 13.6335 -118.3869 2.73545 -7.87552 -36.3996 -1.91672 32.974 0.0 24.6478 0.0 8.14181 -8.27645 -0.898063 0.0 0.0 0.0 0.0 0.0 0.0 119.928696 1.14169 2.12634 42.0181 3.76643 -24.8425 0.0 22.6296 0.0 -3.68177 -3.02455 6.22147 0.0 0.0 0.0 0.0 0.0 0.0 2.76267 11.1288 12.1851 0.0 2.27303 0.0 -5.53852 7.36095 6.26281 0.0 -9.78941 0.0 9.868 7.98544 15.84 0.0 8.03201 0.0 16.6931 6.3250103 -24.4492 0.0 -10.42317 0.0 
  -1.9438400268554688 7.76343017578125 10.43739990234375 -44.6528 84.864 46.5134 5.46506 -22.6616 0.0500921 -3.74018 39.3183 0.190143 1.4996 25.8351 1.15798 18.4859 -68.529 13.5822 -118.376495 2.89958 -7.97205 -36.3493 -1.73969 33.0342 0.0 25.2664 0.0 8.45081 -8.14466 -1.10178 0.0 0.0 0.0 0.0 0.0 0.0 119.8832 1.18485 2.13642 41.9462 3.88733 -24.8679 0.0 22.8818 0.0 -3.98289 -2.87038 6.13862 0.0 0.0 0.0 0.0 0.0 0.0 2.7701 11.092 12.0728 0.0 2.3779 0.0 -5.536 7.34808 6.33254 0.0 -9.80879 0.0 9.85476 8.03926 15.8284 0.0 7.96763 0.0 16.7162 6.3556995 -24.4658 0.0 -10.41058 0.0 
  -1.9447599792480468 7.769539794921875 10.438499755859375 -43.8088 84.8036 45.6542 5.47869 -22.5724 0.0345017 -3.76194 39.45 0.131367 1.44855 25.7235 1.20304 18.4457 -68.4866 13.554 -118.3314 3.08356 -8.07437 -36.3353 -1.53639 33.0322 0.0 25.9248 0.0 8.77623 -8.07908 -1.01529 0.0 0.0 0.0 0.0 0.0 0.0 119.865 1.27686 2.14232 41.8173 4.04048 -24.6992 0.0 23.1585 0.0 -3.95461 -2.74177 6.12808 0.0 0.0 0.0 0.0 0.0 0.0 2.76934 11.1131 12.0455 0.0 2.46129 0.0 -5.52767 7.35514 6.37547 0.0 -9.803511 0.0 9.83613 8.13307 15.8244 0.0 7.89495 0.0 16.712 6.4228897 -24.4626 0.0 -10.40217 0.0 
